#!OML:ASF H:\Terrain\Patient Classification 1\Terrain2\Thursday\justin.ASF
:FULLY-SPECIFIED
:DEGREES
3254
root -2.04535 17.2693 -20.703 1088.95 -246.852 7.61368
lowerback 4.49579 0.2652 -1.46838
upperback 1.53476 0.350768 1.76892
thorax -0.962979 0.18798 2.62299
lowerneck -13.4617 -4.34837 -8.49327
upperneck 37.759 -3.93555 5.33868
head 16.0038 -1.46744 3.34469
rclavicle -3.99817e-014 3.16192e-015
rhumerus -31.9442 -6.72698 -81.812
rradius 36.8414
rwrist -16.5381
rhand -21.6976 10.855
rfingers 7.12502
rthumb 4.7008 -19.0729
lclavicle -3.99817e-014 3.16192e-015
lhumerus -36.9282 2.3004 82.4703
lradius 26.6709
lwrist -0.226265
lhand -21.6539 20.1936
lfingers 7.12502
lthumb 4.74293 50.1205
rfemur -20.1601 -4.01849 22.3868
rtibia 45.5715
rfoot -24.0204 -5.92919
rtoes 5.51513
lfemur -5.28717 5.94801 -17.5393
ltibia 26.098
lfoot -16.8767 1.89137
ltoes -8.11243
3255
root -2.05005 17.2722 -20.7269 1089.03 -247.996 7.65657
lowerback 4.59779 0.405579 -1.49296
upperback 1.37876 0.529054 1.60456
thorax -1.18901 0.27882 2.45688
lowerneck -13.2651 -4.45501 -8.23466
upperneck 37.8967 -4.09341 5.09376
head 16.0266 -1.52957 3.16916
rclavicle -7.46281e-014 4.96962e-015
rhumerus -32.2361 -7.03845 -81.8635
rradius 36.7222
rwrist -16.0662
rhand -21.231 11.1352
rfingers 7.12502
rthumb 5.15134 -18.7822
lclavicle -7.46281e-014 4.96962e-015
lhumerus -36.9682 2.27491 82.1403
lradius 26.3108
lwrist -0.627005
lhand -21.9062 20.2788
lfingers 7.12502
lthumb 4.49935 50.211
rfemur -20.2899 -4.78255 22.471
rtibia 45.9607
rfoot -23.9825 -5.51971
rtoes 8.9463
lfemur -5.04753 6.29797 -17.7894
ltibia 25.9549
lfoot -17.0893 2.26598
ltoes -6.67349
3256
root -2.05487 17.2598 -20.7541 1089.79 -249.145 8.52603
lowerback 4.86252 0.533999 -1.28517
upperback 1.21536 0.707304 1.61415
thorax -1.51212 0.371398 2.3369
lowerneck -12.747 -4.50279 -8.36977
upperneck 37.6368 -4.22289 5.18951
head 15.7877 -1.5992 3.20194
rclavicle 6.13126e-015 -8.44835e-015
rhumerus -32.7016 -6.80612 -81.8879
rradius 36.9608
rwrist -16.2079
rhand -21.2515 10.8894
rfingers 7.12502
rthumb 5.13156 -19.0285
lclavicle 6.13126e-015 -8.44835e-015
lhumerus -37.1253 1.3138 82.3771
lradius 26.1457
lwrist 0.122879
lhand -22.7614 20.8323
lfingers 7.12502
lthumb 3.67351 50.7804
rfemur -20.2329 -5.73046 22.8138
rtibia 46.4364
rfoot -24.0776 -5.01676
rtoes 11.6348
lfemur -4.6067 6.53264 -17.7345
ltibia 25.6686
lfoot -17.2421 2.58647
ltoes -5.37076
3257
root -2.05519 17.2485 -20.7762 1090.23 -250.254 9.03717
lowerback 5.18066 0.440224 -1.71074
upperback 0.98365 0.563476 1.88715
thorax -1.92748 0.308175 2.86541
lowerneck -12.3105 -4.32738 -8.57316
upperneck 37.4112 -3.91309 5.06243
head 15.5421 -1.52603 3.22462
rclavicle 4.33506e-014 1.11941e-014
rhumerus -33.2405 -6.09754 -81.7105
rradius 37.2058
rwrist -16.2055
rhand -21.4594 10.55
rfingers 7.12502
rthumb 4.93082 -19.3726
lclavicle 4.33506e-014 1.11941e-014
lhumerus -37.5275 1.814 82.3172
lradius 25.9659
lwrist 0.0626045
lhand -22.4644 21.2111
lfingers 7.12502
lthumb 3.96033 51.154
rfemur -19.998 -6.58118 22.9517
rtibia 46.8599
rfoot -24.2398 -4.8604
rtoes 10.9215
lfemur -4.24801 6.96917 -17.7898
ltibia 25.4877
lfoot -17.3323 2.80308
ltoes -6.45831
3258
root -2.05904 17.2438 -20.7941 1089.4 -251.384 8.00588
lowerback 4.79604 0.575302 -1.73561
upperback 1.15231 0.733121 1.455
thorax -1.5444 0.384335 2.42519
lowerneck -12.5937 -4.51634 -8.70268
upperneck 37.4138 -4.29633 5.38246
head 15.6632 -1.67365 3.31857
rclavicle 2.08165e-014 -1.69961e-014
rhumerus -33.0541 -7.65671 -81.6236
rradius 36.9826
rwrist -15.1877
rhand -21.253 10.9004
rfingers 7.12502
rthumb 5.13005 -19.0175
lclavicle 2.08165e-014 -1.69961e-014
lhumerus -36.8341 2.44549 81.4813
lradius 25.4822
lwrist -1.2132
lhand -21.4641 21.0022
lfingers 7.12502
lthumb 4.92622 50.925
rfemur -20.0296 -7.32276 22.5652
rtibia 47.2318
rfoot -24.3341 -4.63687
rtoes 8.93075
lfemur -4.22925 7.35202 -18.403
ltibia 25.4755
lfoot -17.3459 2.98319
ltoes -6.73046
3259
root -2.0586 17.2393 -20.8094 1088.93 -252.573 7.35605
lowerback 4.62428 0.412444 -2.35991
upperback 1.13173 0.486085 1.45476
thorax -1.46064 0.260915 2.79272
lowerneck -13.1596 -4.47711 -8.93887
upperneck 37.9404 -4.11941 5.36084
head 16.0617 -1.64013 3.40213
rclavicle -2.84976e-014 -1.29707e-014
rhumerus -32.9086 -7.4392 -81.7534
rradius 36.7704
rwrist -14.7383
rhand -20.8468 11.2551
rfingers 7.12502
rthumb 5.52228 -18.6529
lclavicle -2.84976e-014 -1.29707e-014
lhumerus -36.8052 4.1864 80.6215
lradius 25.1528
lwrist -2.2522
lhand -21.3308 20.7202
lfingers 7.12502
lthumb 5.05498 50.6399
rfemur -20.2708 -8.01265 22.4528
rtibia 47.3845
rfoot -24.0981 -5.01738
rtoes 6.55589
lfemur -4.2311 7.44061 -18.8797
ltibia 25.5224
lfoot -17.3855 3.40661
ltoes -6.52545
3260
root -2.05025 17.2445 -20.8171 1091.13 -253.583 9.63729
lowerback 4.60436 0.236306 -2.23106
upperback 1.10723 0.263628 1.69813
thorax -1.46053 0.150583 2.98446
lowerneck -13.5022 -4.32967 -8.76833
upperneck 38.1789 -3.84746 5.10887
head 16.2276 -1.54452 3.31459
rclavicle 4.18597e-014 -8.19987e-015
rhumerus -33.0298 -6.17529 -82.1347
rradius 36.8019
rwrist -15.1901
rhand -20.6684 11.0719
rfingers 7.12502
rthumb 5.69452 -18.8315
lclavicle 4.18597e-014 -8.19987e-015
lhumerus -36.916 4.58425 80.3412
lradius 25.0324
lwrist -1.55814
lhand -22.0913 20.9978
lfingers 7.12502
lthumb 4.32058 50.9337
rfemur -19.8781 -7.95018 23.1644
rtibia 47.3942
rfoot -24.3221 -4.22208
rtoes 11.6626
lfemur -4.07351 7.66509 -18.293
ltibia 25.5711
lfoot -17.3923 3.72023
ltoes -8.08397
3261
root -2.04186 17.2394 -20.8259 1092.84 -254.296 11.4635
lowerback 4.57538 0.275857 -1.72374
upperback 1.12185 0.341408 1.69095
thorax -1.43202 0.187821 2.68637
lowerneck -13.4035 -4.38194 -8.46454
upperneck 38.0309 -3.96977 4.87266
head 16.1198 -1.59188 3.12467
rclavicle -1.00448e-014 6.90777e-015
rhumerus -33.3675 -5.96925 -82.2782
rradius 36.9472
rwrist -15.7783
rhand -20.8669 10.7582
rfingers 7.12502
rthumb 5.50283 -19.1504
lclavicle -1.00448e-014 6.90777e-015
lhumerus -36.7101 3.99624 80.3696
lradius 24.8477
lwrist -0.794066
lhand -22.7554 21.0823
lfingers 7.12502
lthumb 3.67927 51.0302
rfemur -19.4955 -8.42773 23.7463
rtibia 47.1774
rfoot -23.9201 -3.88535
rtoes 13.8521
lfemur -3.9066 7.86118 -17.8008
ltibia 25.7043
lfoot -17.4513 3.42035
ltoes -7.0584
3262
root -2.03059 17.2259 -20.8429 1092.73 -255.095 11.3801
lowerback 4.48403 0.469786 -1.58225
upperback 1.07423 0.601902 1.52316
thorax -1.44228 0.316803 2.41885
lowerneck -12.9783 -4.5621 -8.4854
upperneck 37.7955 -4.26758 4.82444
head 15.9238 -1.73133 3.04596
rclavicle 5.13113e-015 -4.77083e-015
rhumerus -33.697 -6.75011 -82.1126
rradius 36.9746
rwrist -16.148
rhand -21.2298 10.6583
rfingers 7.12502
rthumb 5.15242 -19.2591
lclavicle 5.13113e-015 -4.77083e-015
lhumerus -36.5049 4.13493 80.1029
lradius 24.6102
lwrist -1.40077
lhand -22.4568 20.8935
lfingers 7.12502
lthumb 3.96762 50.8363
rfemur -19.2199 -9.43653 23.6872
rtibia 46.9166
rfoot -23.4624 -4.11081
rtoes 12.0279
lfemur -3.69654 7.68263 -17.9836
ltibia 25.815
lfoot -17.5211 3.09354
ltoes -4.52268
